#Comment line ignore any data following # character 
#Hierarchical Translation and Rotation (.htr) file 
[Header]	
#Header keywords are followed by a single value 
FileType HTR		#Single word string
DataType HTRS		#Translation followed by rotation and scale data
FileVersion 1		#integer
NumSegments 84		#integer
NumFrames 2		#integer
DataFrameRate 30		#integer, data frame rate in this file
EulerRotationOrder ZYX
CalibrationUnits mm
RotationUnits Degrees
GlobalAxisofGravity Y
BoneLengthAxis Y
ScaleFactor 1.00
[SegmentNames&Hierarchy]
#CHILD	PARENT
MASTER GLOBAL
root MASTER
chest root
L_mid_tent01 root
R_mid_tent01 root
spine01 root
Bip01_Neck chest
L_humerus chest
R_humerus chest
weapon_bone chest
Bip01_Head Bip01_Neck
eye_left_bone Bip01_Head
eye_right_bone Bip01_Head
L_forearm L_humerus
L_front_hand L_forearm
L_weapon_bone L_forearm
L_front_hand01_01 L_front_hand
L_front_hand02_01 L_front_hand
L_front_hand03_01 L_front_hand
L_front_hand01_02 L_front_hand01_01
L_front_hand02_02 L_front_hand02_01
L_front_hand03_02 L_front_hand03_01
R_forearm R_humerus
R_front_hand R_forearm
R_weapon_bone R_forearm
R_front_hand01_01 R_front_hand
R_front_hand02_01 R_front_hand
R_front_hand03_01 R_front_hand
R_front_hand01_02 R_front_hand01_01
R_front_hand02_02 R_front_hand02_01
R_front_hand03_02 R_front_hand03_01
null_rope01_connect L_mid_tent01
Rope1_Seg01 null_rope01_connect
Rope1_Seg02 Rope1_Seg01
Rope1_Seg03 Rope1_Seg02
Rope1_Seg04 Rope1_Seg03
Rope1_Seg05 Rope1_Seg04
Rope1_Seg06 Rope1_Seg05
Rope1_Seg07 Rope1_Seg06
Rope1_Seg09 Rope1_Seg07
L_mid_hand01 Rope1_Seg09
L_mid_hand02 Rope1_Seg09
L_mid_hand03 Rope1_Seg09
null_rope02_connect R_mid_tent01
Rope2_Seg01 null_rope02_connect
Rope2_Seg02 Rope2_Seg01
Rope2_Seg03 Rope2_Seg02
Rope2_Seg04 Rope2_Seg03
Rope2_Seg05 Rope2_Seg04
Rope2_Seg06 Rope2_Seg05
Rope2_Seg07 Rope2_Seg06
Rope2_Seg09 Rope2_Seg07
R_mid_hand01 Rope2_Seg09
R_mid_hand02 Rope2_Seg09
R_mid_hand03 Rope2_Seg09
spine02 spine01
spine03 spine02
pelvis spine03
null_rope03_connect pelvis
null_rope04_connect pelvis
Rope3_Seg01 null_rope03_connect
Rope3_Seg02 Rope3_Seg01
Rope3_Seg03 Rope3_Seg02
Rope3_Seg04 Rope3_Seg03
Rope3_Seg05 Rope3_Seg04
Rope3_Seg06 Rope3_Seg05
Rope3_Seg07 Rope3_Seg06
Rope3_Seg08 Rope3_Seg07
Rope3_Seg09 Rope3_Seg08
R_rear_hand01 Rope3_Seg09
R_rear_hand02 Rope3_Seg09
R_rear_hand03 Rope3_Seg09
Rope4_Seg01 null_rope04_connect
Rope4_Seg02 Rope4_Seg01
Rope4_Seg03 Rope4_Seg02
Rope4_Seg04 Rope4_Seg03
Rope4_Seg05 Rope4_Seg04
Rope4_Seg06 Rope4_Seg05
Rope4_Seg07 Rope4_Seg06
Rope4_Seg08 Rope4_Seg07
Rope4_Seg09 Rope4_Seg08
L_rear_hand01 Rope4_Seg09
L_rear_hand02 Rope4_Seg09
L_rear_hand03 Rope4_Seg09
[BasePosition]
#SegmentName Tx, Ty, Tz, Rx, Ry, Rz, BoneLength
MASTER 0.000000 0.000000 0.000000 -90.000000 0.000000 0.000000 10.000000 
root 0.000000 0.000000 0.000000 0.000000 0.000000 0.000000 10.000000 
chest 0.000000 0.000000 0.000000 0.000000 0.000000 0.000000 10.000000 
L_mid_tent01 0.000000 0.000000 0.000000 0.000000 0.000000 0.000000 10.000000 
R_mid_tent01 0.000000 0.000000 0.000000 0.000000 0.000000 0.000000 10.000000 
spine01 0.000000 0.000000 0.000000 0.000000 0.000000 0.000000 10.000000 
Bip01_Neck 0.000000 0.000000 0.000000 0.000000 0.000000 0.000000 10.000000 
L_humerus 0.000000 0.000000 0.000000 0.000000 0.000000 0.000000 10.000000 
R_humerus 0.000000 0.000000 0.000000 0.000000 0.000000 0.000000 10.000000 
weapon_bone 0.000000 0.000000 0.000000 0.000000 0.000000 0.000000 10.000000 
Bip01_Head 0.000000 0.000000 0.000000 0.000000 0.000000 0.000000 10.000000 
eye_left_bone 0.000000 0.000000 0.000000 0.000000 0.000000 0.000000 10.000000 
eye_right_bone 0.000000 0.000000 0.000000 0.000000 0.000000 0.000000 10.000000 
L_forearm 0.000000 0.000000 0.000000 0.000000 0.000000 0.000000 10.000000 
L_front_hand 0.000000 0.000000 0.000000 0.000000 0.000000 0.000000 10.000000 
L_weapon_bone 0.000000 0.000000 0.000000 0.000000 0.000000 0.000000 10.000000 
L_front_hand01_01 0.000000 0.000000 0.000000 0.000000 0.000000 0.000000 10.000000 
L_front_hand02_01 0.000000 0.000000 0.000000 0.000000 0.000000 0.000000 10.000000 
L_front_hand03_01 0.000000 0.000000 0.000000 0.000000 0.000000 0.000000 10.000000 
L_front_hand01_02 0.000000 0.000000 0.000000 0.000000 0.000000 0.000000 10.000000 
L_front_hand02_02 0.000000 0.000000 0.000000 0.000000 0.000000 0.000000 10.000000 
L_front_hand03_02 0.000000 0.000000 0.000000 0.000000 0.000000 0.000000 10.000000 
R_forearm 0.000000 0.000000 0.000000 0.000000 0.000000 0.000000 10.000000 
R_front_hand 0.000000 0.000000 0.000000 0.000000 0.000000 0.000000 10.000000 
R_weapon_bone 0.000000 0.000000 0.000000 0.000000 0.000000 0.000000 10.000000 
R_front_hand01_01 0.000000 0.000000 0.000000 0.000000 0.000000 0.000000 10.000000 
R_front_hand02_01 0.000000 0.000000 0.000000 0.000000 0.000000 0.000000 10.000000 
R_front_hand03_01 0.000000 0.000000 0.000000 0.000000 0.000000 0.000000 10.000000 
R_front_hand01_02 0.000000 0.000000 0.000000 0.000000 0.000000 0.000000 10.000000 
R_front_hand02_02 0.000000 0.000000 0.000000 0.000000 0.000000 0.000000 10.000000 
R_front_hand03_02 0.000000 0.000000 0.000000 0.000000 0.000000 0.000000 10.000000 
null_rope01_connect 0.000000 0.000000 0.000000 0.000000 0.000000 0.000000 10.000000 
Rope1_Seg01 0.000000 0.000000 0.000000 0.000000 0.000000 0.000000 10.000000 
Rope1_Seg02 0.000000 0.000000 0.000000 0.000000 0.000000 0.000000 10.000000 
Rope1_Seg03 0.000000 0.000000 0.000000 0.000000 0.000000 0.000000 10.000000 
Rope1_Seg04 0.000000 0.000000 0.000000 0.000000 0.000000 0.000000 10.000000 
Rope1_Seg05 0.000000 0.000000 0.000000 0.000000 0.000000 0.000000 10.000000 
Rope1_Seg06 0.000000 0.000000 0.000000 0.000000 0.000000 0.000000 10.000000 
Rope1_Seg07 0.000000 0.000000 0.000000 0.000000 0.000000 0.000000 10.000000 
Rope1_Seg09 0.000000 0.000000 0.000000 0.000000 0.000000 0.000000 10.000000 
L_mid_hand01 0.000000 0.000000 0.000000 0.000000 0.000000 0.000000 10.000000 
L_mid_hand02 0.000000 0.000000 0.000000 0.000000 0.000000 0.000000 10.000000 
L_mid_hand03 0.000000 0.000000 0.000000 0.000000 0.000000 0.000000 10.000000 
null_rope02_connect 0.000000 0.000000 0.000000 0.000000 0.000000 0.000000 10.000000 
Rope2_Seg01 0.000000 0.000000 0.000000 0.000000 0.000000 0.000000 10.000000 
Rope2_Seg02 0.000000 0.000000 0.000000 0.000000 0.000000 0.000000 10.000000 
Rope2_Seg03 0.000000 0.000000 0.000000 0.000000 0.000000 0.000000 10.000000 
Rope2_Seg04 0.000000 0.000000 0.000000 0.000000 0.000000 0.000000 10.000000 
Rope2_Seg05 0.000000 0.000000 0.000000 0.000000 0.000000 0.000000 10.000000 
Rope2_Seg06 0.000000 0.000000 0.000000 0.000000 0.000000 0.000000 10.000000 
Rope2_Seg07 0.000000 0.000000 0.000000 0.000000 0.000000 0.000000 10.000000 
Rope2_Seg09 0.000000 0.000000 0.000000 0.000000 0.000000 0.000000 10.000000 
R_mid_hand01 0.000000 0.000000 0.000000 0.000000 0.000000 0.000000 10.000000 
R_mid_hand02 0.000000 0.000000 0.000000 0.000000 0.000000 0.000000 10.000000 
R_mid_hand03 0.000000 0.000000 0.000000 0.000000 0.000000 0.000000 10.000000 
spine02 0.000000 0.000000 0.000000 0.000000 0.000000 0.000000 10.000000 
spine03 0.000000 0.000000 0.000000 0.000000 0.000000 0.000000 10.000000 
pelvis 0.000000 0.000000 0.000000 0.000000 0.000000 0.000000 10.000000 
null_rope03_connect 0.000000 0.000000 0.000000 0.000000 0.000000 0.000000 10.000000 
null_rope04_connect 0.000000 0.000000 0.000000 0.000000 0.000000 0.000000 10.000000 
Rope3_Seg01 0.000000 0.000000 0.000000 0.000000 0.000000 0.000000 10.000000 
Rope3_Seg02 0.000000 0.000000 0.000000 0.000000 0.000000 0.000000 10.000000 
Rope3_Seg03 0.000000 0.000000 0.000000 0.000000 0.000000 0.000000 10.000000 
Rope3_Seg04 0.000000 0.000000 0.000000 0.000000 0.000000 0.000000 10.000000 
Rope3_Seg05 0.000000 0.000000 0.000000 0.000000 0.000000 0.000000 10.000000 
Rope3_Seg06 0.000000 0.000000 0.000000 0.000000 0.000000 0.000000 10.000000 
Rope3_Seg07 0.000000 0.000000 0.000000 0.000000 0.000000 0.000000 10.000000 
Rope3_Seg08 0.000000 0.000000 0.000000 0.000000 0.000000 0.000000 10.000000 
Rope3_Seg09 0.000000 0.000000 0.000000 0.000000 0.000000 0.000000 10.000000 
R_rear_hand01 0.000000 0.000000 0.000000 0.000000 0.000000 0.000000 10.000000 
R_rear_hand02 0.000000 0.000000 0.000000 0.000000 0.000000 0.000000 10.000000 
R_rear_hand03 0.000000 0.000000 0.000000 0.000000 0.000000 0.000000 10.000000 
Rope4_Seg01 0.000000 0.000000 0.000000 0.000000 0.000000 0.000000 10.000000 
Rope4_Seg02 0.000000 0.000000 0.000000 0.000000 0.000000 0.000000 10.000000 
Rope4_Seg03 0.000000 0.000000 0.000000 0.000000 0.000000 0.000000 10.000000 
Rope4_Seg04 0.000000 0.000000 0.000000 0.000000 0.000000 0.000000 10.000000 
Rope4_Seg05 0.000000 0.000000 0.000000 0.000000 0.000000 0.000000 10.000000 
Rope4_Seg06 0.000000 0.000000 0.000000 0.000000 0.000000 0.000000 10.000000 
Rope4_Seg07 0.000000 0.000000 0.000000 0.000000 0.000000 0.000000 10.000000 
Rope4_Seg08 0.000000 0.000000 0.000000 0.000000 0.000000 0.000000 10.000000 
Rope4_Seg09 0.000000 0.000000 0.000000 0.000000 0.000000 0.000000 10.000000 
L_rear_hand01 0.000000 0.000000 0.000000 0.000000 0.000000 0.000000 10.000000 
L_rear_hand02 0.000000 0.000000 0.000000 0.000000 0.000000 0.000000 10.000000 
L_rear_hand03 0.000000 0.000000 0.000000 0.000000 0.000000 0.000000 10.000000 
#Beginning of Data. Separated by tabs
#Fr	Tx	Ty	Tz	Rx	Ry	Rz	SF
[MASTER]
48 -0.000074 554.566467 0.000000 0.001660 0.001660 0.001660 554.566467
49 -0.000074 554.566467 0.000000 0.001660 0.001660 0.001660 554.566467
[root]
48 -231.736847 277.973328 916.390442 -95.831383 -23.716757 -85.851845 985.262634
49 -244.744522 271.130310 929.157471 -95.916252 -23.705671 -85.670975 998.371277
[chest]
48 -84.512650 -34.090519 0.000000 2.364851 0.071666 175.729782 91.129311
49 -84.512650 -34.090519 0.000000 1.526557 -0.015273 175.822678 91.129311
[L_mid_tent01]
48 27.731123 21.930256 -252.691025 13.291264 29.504333 82.921753 255.152328
49 27.733238 21.929037 -252.704681 13.228213 29.211279 82.823952 255.165970
[R_mid_tent01]
48 23.228794 24.509907 226.238495 155.159286 -20.373026 79.331429 228.744751
49 23.228794 24.509907 226.238495 155.141541 -20.714088 79.418961 228.744751
[spine01]
48 -0.361383 -0.195265 0.000000 0.001869 0.001420 15.534143 0.410763
49 -0.361383 -0.195265 0.000000 0.001869 0.001420 15.534143 0.410763
[Bip01_Neck]
48 165.484543 71.581718 0.000119 175.896118 1.177290 24.871183 180.302734
49 165.484543 71.581718 0.000119 175.896118 1.177290 24.871183 180.302734
[L_humerus]
48 -13.983130 -135.272980 -120.471481 177.775970 -2.191953 -158.344101 181.680161
49 -13.983130 -135.272980 -120.471481 177.757736 -2.360947 -158.097900 181.680161
[R_humerus]
48 -13.983309 -135.273102 125.287651 -162.104645 -5.627860 -116.098328 184.909012
49 -13.983309 -135.273102 125.287651 -162.673264 -4.897556 -114.892975 184.909012
[weapon_bone]
48 235.964890 -300.705902 0.000000 0.000000 -89.951546 -128.212341 382.234833
49 235.964890 -300.705902 0.000000 0.000000 -89.951546 -128.212341 382.234833
[Bip01_Head]
48 186.019943 185.149979 15.270423 41.750526 19.934481 -37.346870 262.901367
49 186.019943 185.149979 15.270423 41.750526 19.934481 -37.346870 262.901367
[eye_left_bone]
48 -24.626970 125.451866 -64.772606 0.000000 -90.000000 -99.840431 143.318359
49 -24.626970 125.451866 -64.772606 0.000000 -90.000000 -99.840431 143.318359
[eye_right_bone]
48 -24.626970 125.451866 64.327362 0.000000 -89.972023 80.159386 143.117676
49 -24.626970 125.451866 64.327362 0.000000 -89.960434 80.159386 143.117676
[L_forearm]
48 322.776093 0.000000 -0.000119 0.000189 -0.002340 -99.235611 322.776093
49 322.776093 0.000000 -0.000119 0.000186 -0.002340 -99.081238 322.776093
[L_front_hand]
48 241.149185 -0.042021 -3.300071 -179.657440 -2.241768 -0.148498 241.171753
49 241.149185 -0.042021 -3.300071 -179.656815 -2.241672 -0.180662 241.171753
[L_weapon_bone]
48 156.183838 0.000000 0.000000 0.000014 0.000007 0.000001 156.183838
49 156.183838 0.000000 0.000000 0.000014 0.000007 0.000001 156.183838
[L_front_hand01_01]
48 86.095154 20.947098 -0.655860 -0.366594 -0.477154 75.385574 88.609184
49 86.095154 20.947098 -0.655860 -0.366594 -0.477154 75.385574 88.609184
[L_front_hand02_01]
48 86.935165 -11.437475 24.513514 154.403519 -59.888931 -61.371990 91.046425
49 86.935165 -11.437475 24.513514 154.403519 -59.888931 -61.371990 91.046425
[L_front_hand03_01]
48 86.637497 -14.123976 -20.424902 -153.913849 58.118122 -62.702866 90.126129
49 86.637497 -14.123976 -20.424902 -153.913849 58.118122 -62.702866 90.126129
[L_front_hand01_02]
48 71.020905 -0.000179 0.000030 0.000334 -0.002323 -106.379684 71.020905
49 71.020905 -0.000179 0.000030 0.000334 -0.002323 -106.379684 71.020905
[L_front_hand02_02]
48 71.020927 -0.000119 0.000060 0.000334 -0.002323 -106.379684 71.020927
49 71.020927 -0.000119 0.000060 0.000334 -0.002323 -106.379684 71.020927
[L_front_hand03_02]
48 71.020905 -0.000060 0.000060 0.000334 -0.002323 -106.379684 71.020905
49 71.020905 -0.000060 0.000060 0.000334 -0.002323 -106.379684 71.020905
[R_forearm]
48 322.776428 -0.000060 0.000030 0.206927 0.039440 -101.430138 322.776428
49 322.776428 -0.000060 0.000030 0.206962 0.039255 -101.327835 322.776428
[R_front_hand]
48 238.847015 -0.006795 2.210259 101.293777 0.792501 -51.441650 238.857239
49 238.847015 -0.006795 2.210259 64.989693 0.793408 -51.441326 238.857239
[R_weapon_bone]
48 155.664093 0.002503 -0.000030 0.003487 0.001180 -90.988930 155.664078
49 155.664093 0.002503 -0.000030 0.003487 0.001180 -90.988930 155.664078
[R_front_hand01_01]
48 87.624611 14.231146 22.918642 -147.464691 -57.540623 53.366596 91.683487
49 87.624611 14.231146 22.918642 -146.964844 -57.334595 52.773205 91.683487
[R_front_hand02_01]
48 89.356956 14.367283 -19.491137 147.851700 55.904667 55.712852 92.579636
49 89.356956 14.367283 -19.491137 147.385696 55.703083 55.149773 92.579636
[R_front_hand03_01]
48 87.286232 -22.307278 -0.143439 0.124309 -0.435065 -70.793564 90.091743
49 87.286232 -22.307278 -0.143439 0.120691 -0.435804 -70.416595 90.091743
[R_front_hand01_02]
48 71.020905 0.000060 0.000119 0.002339 -0.000194 99.478180 71.020905
49 71.020905 0.000060 0.000119 0.002340 -0.000182 98.891838 71.020905
[R_front_hand02_02]
48 71.020844 -0.000030 -0.000119 0.002339 -0.000194 99.478180 71.020836
49 71.020844 -0.000030 -0.000119 0.002340 -0.000182 98.891838 71.020836
[R_front_hand03_02]
48 71.020905 0.000000 0.000030 0.002339 -0.000194 99.478180 71.020905
49 71.020905 0.000000 0.000030 0.002340 -0.000182 98.891838 71.020905
[null_rope01_connect]
48 328.732483 0.000000 -0.000238 -131.610199 -56.052452 167.682327 328.732483
49 328.732483 0.000000 -0.000238 -131.723755 -56.405701 167.864899 328.732483
[Rope1_Seg01]
48 6.247024 -4.718819 -1.583072 3.954691 3.575899 -149.808228 7.987408
49 6.282558 -4.678708 -1.575373 2.855107 4.735547 -152.132599 7.990159
[Rope1_Seg02]
48 139.999863 -0.000179 0.000000 2.058642 10.011357 -6.773844 139.999863
49 139.999863 -0.000179 0.000000 2.015963 10.859200 -7.185393 139.999863
[Rope1_Seg03]
48 139.999924 0.000060 -0.000060 -4.358257 30.351818 -25.274204 139.999924
49 139.999924 0.000060 -0.000060 -5.278629 31.723372 -26.113020 139.999924
[Rope1_Seg04]
48 139.999924 -0.000060 -0.000119 -17.315094 36.645393 -35.242706 139.999924
49 139.999924 -0.000060 -0.000119 -16.471285 35.045708 -31.719736 139.999924
[Rope1_Seg05]
48 139.999832 0.000119 -0.000060 -6.834994 12.695399 -9.826683 139.999832
49 139.999832 0.000119 -0.000060 -7.600677 12.639034 -9.316525 139.999832
[Rope1_Seg06]
48 139.999954 0.000119 -0.000060 -45.019001 17.625811 -14.264078 139.999954
49 139.999954 0.000119 -0.000060 -59.024578 18.487175 -13.730425 139.999954
[Rope1_Seg07]
48 139.999985 0.000060 0.000000 -110.933464 23.666763 3.029702 139.999985
49 139.999985 0.000060 0.000000 -91.391876 21.094320 9.642913 139.999985
[Rope1_Seg09]
48 121.602913 0.000119 -0.000089 -89.793175 -1.359789 0.847147 121.602913
49 121.602913 0.000119 -0.000089 -89.793175 -1.359789 0.847147 121.602913
[L_mid_hand01]
48 103.859421 1.038730 8.195221 116.294914 -23.111713 -31.758034 104.187431
49 103.859421 1.038730 8.195221 116.294914 -23.111713 -31.758034 104.187431
[L_mid_hand02]
48 105.572853 -4.139662 -10.864139 -144.219833 17.447468 -35.360519 106.211075
49 105.572853 -4.139662 -10.864139 -144.219833 17.447470 -35.360519 106.211075
[L_mid_hand03]
48 104.641464 17.579376 -3.913581 -17.830778 17.153103 31.982925 106.179977
49 104.641464 17.579376 -3.913581 -17.830776 17.153103 31.982925 106.179977
[null_rope02_connect]
48 328.732849 0.000179 -0.000119 -84.128891 56.329536 58.301281 328.732849
49 328.732849 0.000179 -0.000119 -84.564552 56.001362 57.916821 328.732849
[Rope2_Seg01]
48 0.000039 0.000200 0.000000 47.724335 26.380377 -24.146883 0.000204
49 0.000039 0.000201 0.000000 48.599903 26.794626 -23.263502 0.000205
[Rope2_Seg02]
48 139.999741 -0.000060 -0.000119 5.625810 5.461180 4.827127 139.999756
49 139.999741 -0.000060 -0.000119 5.620509 5.698495 4.903512 139.999756
[Rope2_Seg03]
48 140.000107 0.000030 0.000000 8.221159 10.542961 7.761889 140.000107
49 140.000107 0.000030 0.000000 8.106932 10.914493 7.839369 140.000107
[Rope2_Seg04]
48 139.999802 0.000000 -0.000060 10.482187 24.170807 12.569373 139.999802
49 139.999802 0.000000 -0.000060 9.936975 24.578138 12.339476 139.999802
[Rope2_Seg05]
48 139.999985 -0.000060 0.000119 2.403865 31.993662 9.958651 139.999985
49 139.999985 -0.000060 0.000119 1.826626 30.758549 9.588614 139.999985
[Rope2_Seg06]
48 139.999893 -0.000030 -0.000119 -3.328731 11.642220 9.574429 139.999893
49 139.999893 -0.000030 -0.000119 -3.319305 10.774596 9.815069 139.999893
[Rope2_Seg07]
48 139.999893 0.000060 -0.000060 -4.566001 2.875274 15.012167 139.999893
49 139.999893 0.000060 -0.000060 -4.348686 2.250731 14.973474 139.999893
[Rope2_Seg09]
48 121.338966 0.000089 -0.000060 33.793236 -1.359788 -0.847141 121.338966
49 121.338966 0.000089 -0.000060 33.793236 -1.359788 -0.847141 121.338966
[R_mid_hand01]
48 104.680779 11.144459 -10.335981 -41.523792 25.424656 28.595957 105.778534
49 104.680779 11.144459 -10.335981 -41.523792 25.424656 28.595957 105.778534
[R_mid_hand02]
48 104.070427 2.443552 8.231699 72.847389 -32.746803 10.013901 104.424065
49 104.070427 2.443552 8.231699 72.847389 -32.746803 10.013901 104.424065
[R_mid_hand03]
48 106.028137 -11.221827 -5.996406 -167.901306 10.259192 -37.009720 106.788818
49 106.028137 -11.221827 -5.996406 -167.901306 10.259192 -37.009720 106.788818
[spine02]
48 129.756927 0.001550 0.000119 -0.245322 -4.052060 -4.355547 129.756927
49 129.756927 0.001550 0.000119 -0.245322 -4.052060 -4.355547 129.756927
[spine03]
48 78.613846 0.087372 -4.898873 0.369659 4.260734 -4.885720 78.766380
49 78.613846 0.087372 -4.898873 0.369659 4.260734 -4.885720 78.766380
[pelvis]
48 169.435242 0.051022 0.000000 -0.010007 -0.191417 -1.897554 169.435257
49 169.435242 0.051022 0.000000 -0.010007 -0.191417 -1.897554 169.435257
[null_rope03_connect]
48 -1.257226 -2.466202 137.391083 158.517166 -84.731880 -49.014896 137.418976
49 -1.257226 -2.466202 137.391083 157.471100 -84.608345 -47.968567 137.418976
[null_rope04_connect]
48 -1.259640 -2.480268 -137.844437 158.517166 -84.731880 -49.014896 137.872513
49 -1.259640 -2.480268 -137.844437 157.471100 -84.608345 -47.968567 137.872513
[Rope3_Seg01]
48 0.000000 0.000000 0.000000 -38.859581 -42.655922 -3.970304 0.000000
49 0.000000 0.000000 0.000000 -40.386230 -41.636528 -2.394918 0.000000
[Rope3_Seg02]
48 139.999924 -0.000119 0.000060 -2.207485 -1.649369 4.229532 139.999924
49 139.999924 -0.000119 0.000060 -2.304454 -1.640236 4.198637 139.999924
[Rope3_Seg03]
48 139.999924 -0.000119 0.000119 -3.955801 -2.714330 6.242603 139.999924
49 139.999924 -0.000119 0.000119 -4.095063 -2.692270 6.162324 139.999924
[Rope3_Seg04]
48 139.999924 0.000119 0.000000 -8.276684 -5.079973 9.915322 139.999924
49 139.999924 0.000119 0.000000 -8.450000 -5.023435 9.698104 139.999924
[Rope3_Seg05]
48 139.999924 -0.000238 0.000060 -25.623556 -14.395218 20.831760 139.999924
49 139.999924 -0.000238 0.000060 -25.708719 -14.214474 20.201292 139.999924
[Rope3_Seg06]
48 139.999893 -0.000119 -0.000060 -21.815830 -18.715631 12.362371 139.999893
49 139.999893 -0.000119 -0.000060 -21.788462 -18.530167 11.934866 139.999893
[Rope3_Seg07]
48 139.999771 0.000060 -0.000119 -2.150400 -2.622925 1.718383 139.999771
49 139.999771 0.000060 -0.000119 -1.971130 -2.359998 1.620556 139.999771
[Rope3_Seg08]
48 139.999985 -0.000060 0.000000 -2.946684 -4.060897 1.556672 139.999985
49 139.999985 -0.000060 0.000000 -2.839018 -3.841626 1.468076 139.999985
[Rope3_Seg09]
48 90.185997 -0.000179 -0.000060 89.793228 -1.359877 -0.847183 90.185997
49 90.185997 -0.000179 -0.000060 89.793228 -1.359877 -0.847183 90.185997
[R_rear_hand01]
48 103.366196 -6.073594 -10.757982 -161.551193 16.666374 -30.088671 104.101845
49 103.366196 -6.073594 -10.757982 -161.551193 16.666374 -30.088671 104.101845
[R_rear_hand02]
48 100.509819 12.039542 -7.992327 -34.280552 19.289745 28.875523 101.543350
49 100.509819 12.039542 -7.992327 -34.280552 19.289745 28.875523 101.543350
[R_rear_hand03]
48 101.539970 5.215704 5.435467 83.366440 -30.933914 7.284830 101.819031
49 101.539970 5.215704 5.435467 83.366440 -30.933914 7.284830 101.819031
[Rope4_Seg01]
48 -0.000026 -0.000052 0.000105 -65.196236 -28.204811 -161.192474 0.000120
49 -0.000026 -0.000052 0.000104 -64.055679 -28.139723 -162.371918 0.000119
[Rope4_Seg02]
48 139.999985 0.000060 0.000119 9.479320 11.176572 -7.768007 139.999985
49 139.999985 0.000060 0.000119 9.748855 11.146984 -7.820535 139.999985
[Rope4_Seg03]
48 139.999924 0.000000 -0.000238 17.641687 14.386139 -14.819352 139.999924
49 139.999924 0.000000 -0.000238 18.048347 14.283829 -14.989838 139.999924
[Rope4_Seg04]
48 139.999985 0.000000 0.000119 17.306881 7.046875 -20.181335 139.999985
49 139.999985 0.000000 0.000119 17.426767 6.757339 -20.356232 139.999985
[Rope4_Seg05]
48 139.999802 -0.000060 -0.000119 10.454738 3.066371 -15.727354 139.999802
49 139.999802 -0.000060 -0.000119 10.360164 2.777042 -15.804020 139.999802
[Rope4_Seg06]
48 139.999924 0.000000 0.000060 11.417274 5.199946 -23.348236 139.999924
49 139.999924 0.000000 0.000060 11.207191 4.818357 -23.468842 139.999924
[Rope4_Seg07]
48 139.999802 0.000000 0.000000 7.050763 0.178063 -23.885044 139.999802
49 139.999802 0.000000 0.000000 6.797451 -0.103459 -23.969803 139.999802
[Rope4_Seg08]
48 139.999924 0.000000 0.000119 0.192194 -1.788388 -11.530798 139.999924
49 139.999924 0.000000 0.000119 0.055611 -1.861848 -11.541250 139.999924
[Rope4_Seg09]
48 90.185791 0.000060 0.000060 -135.617828 2.228885 0.850567 90.185791
49 90.185791 0.000060 0.000060 -135.617828 2.228885 0.850567 90.185791
[L_rear_hand01]
48 101.696655 -8.392275 -7.654577 -34.454281 -18.946800 151.655121 102.329041
49 101.696655 -8.392275 -7.654577 -34.454281 -18.946800 151.655121 102.329041
[L_rear_hand02]
48 102.726799 -1.568258 5.773216 83.407906 30.330435 172.796509 102.900848
49 102.726799 -1.568258 5.773216 83.407906 30.330435 172.796509 102.900848
[L_rear_hand03]
48 104.552910 9.721220 -10.420293 -161.379868 -16.473232 -150.512238 105.519653
49 104.552910 9.721220 -10.420293 -161.379868 -16.473232 -150.512238 105.519653
